<svg width="19" height="15" viewBox="0 0 19 15" fill="none" xmlns="http://www.w3.org/2000/svg">
<path d="M3.57812 0.75H10.5781C11.2891 0.75 11.8906 1.35156 11.8906 2.0625V3.375H13.2578C13.7227 3.375 14.1602 3.56641 14.5156 3.89453L16.6211 6C16.9492 6.32812 17.1406 6.79297 17.1406 7.25781V10.375C17.6055 10.375 18.0156 10.7852 18.0156 11.25C18.0156 11.7422 17.6055 12.125 17.1406 12.125H16.2656C16.2656 13.5742 15.0898 14.75 13.6406 14.75C12.1641 14.75 11.0156 13.5742 11.0156 12.125H7.51562C7.51562 13.5742 6.33984 14.75 4.89062 14.75C3.41406 14.75 2.26562 13.5742 2.26562 12.125V8.625H6.20312C6.42188 8.625 6.64062 8.43359 6.64062 8.1875C6.64062 7.96875 6.42188 7.75 6.20312 7.75H0.953125C0.707031 7.75 0.515625 7.55859 0.515625 7.3125C0.515625 7.09375 0.707031 6.875 0.953125 6.875H7.07812C7.29688 6.875 7.51562 6.68359 7.51562 6.4375C7.51562 6.21875 7.29688 6 7.07812 6H1.82812C1.58203 6 1.39062 5.80859 1.39062 5.5625C1.39062 5.34375 1.58203 5.125 1.82812 5.125H7.95312C8.17188 5.125 8.39062 4.93359 8.39062 4.6875C8.39062 4.46875 8.17188 4.25 7.95312 4.25H0.953125C0.707031 4.25 0.515625 4.05859 0.515625 3.8125C0.515625 3.59375 0.707031 3.375 0.953125 3.375H2.26562V2.0625C2.26562 1.35156 2.83984 0.75 3.57812 0.75ZM15.3906 7.25781L13.2578 5.125H11.8906V7.75H15.3906V7.25781ZM4.89062 13.4375C5.60156 13.4375 6.20312 12.8633 6.20312 12.125C6.20312 11.4141 5.60156 10.8125 4.89062 10.8125C4.15234 10.8125 3.57812 11.4141 3.57812 12.125C3.57812 12.8633 4.15234 13.4375 4.89062 13.4375ZM14.9531 12.125C14.9531 11.4141 14.3516 10.8125 13.6406 10.8125C12.9023 10.8125 12.3281 11.4141 12.3281 12.125C12.3281 12.8633 12.9023 13.4375 13.6406 13.4375C14.3516 13.4375 14.9531 12.8633 14.9531 12.125Z" fill="#ff460f"/>
</svg>
 